<svg width="490" height="121" viewBox="0 0 490 121" fill="none" xmlns="http://www.w3.org/2000/svg">
<g clip-path="url(#clip0_4_18)">
<path fill-rule="evenodd" clip-rule="evenodd" d="M4.29 16.43H9.14C11.5 16.43 13.43 18.36 13.43 20.72C13.43 23.08 11.5 25.01 9.14 25.01H4.29C1.93 25.01 0 23.08 0 20.72C0 18.36 1.93 16.43 4.29 16.43ZM10.26 65.35H17.28C19.64 65.35 21.57 67.28 21.57 69.64C21.57 72 19.64 73.93 17.28 73.93H10.26C7.9 73.93 5.97 72 5.97 69.64C5.97 67.28 7.9 65.35 10.26 65.35ZM23.18 49.29H29.22C31.58 49.29 33.51 51.22 33.51 53.58C33.51 55.94 31.58 57.87 29.22 57.87H23.18C20.82 57.87 18.89 55.94 18.89 53.58C18.89 51.22 20.82 49.29 23.18 49.29ZM21.7 96.74H26.55C28.91 96.74 30.84 98.67 30.84 101.03C30.84 103.39 28.91 105.32 26.55 105.32H21.7C19.34 105.32 17.41 103.39 17.41 101.03C17.41 98.67 19.34 96.74 21.7 96.74ZM74.74 90.37V107.04L75.6 107.11C80.93 107.54 88.17 107.47 93.24 105.7C102.45 102.47 110.21 96.67 114.52 87.75C117.52 81.54 118.07 76.59 118.1 69.79C118.1 67.04 118.06 61.04 118.04 58.28L117.76 13.81H74.74V30.91H101.31V40.46C101.31 46.36 101.43 52.26 101.38 58.16L101.27 73.71C101.2 81.62 94.14 89.01 86.44 90.15C84.35 90.46 82.26 90.61 80.15 90.56C78.66 90.52 77.17 90.38 75.69 90.38H74.75L74.74 90.37ZM143.83 56.39V0H34.36C32 0 30.07 1.93 30.07 4.29C30.07 6.65 32 8.58 34.36 8.58H42.99C45.14 8.59 46.89 10.35 46.89 12.5C46.89 14.65 45.12 16.42 42.97 16.42H27.55C25.19 16.42 23.26 18.35 23.26 20.71C23.26 23.07 25.19 25 27.55 25H48.95C51.1 25.01 52.85 26.77 52.85 28.92C52.85 31.07 51.09 32.84 48.93 32.84H27.54C25.18 32.84 23.25 34.77 23.25 37.13C23.25 39.49 25.18 41.42 27.54 41.42H64.56C66.72 41.42 68.48 43.19 68.48 45.34C68.48 47.49 66.72 49.26 64.56 49.26H42.59C40.32 49.37 38.49 51.26 38.49 53.55C38.49 55.84 40.31 57.73 42.59 57.84H42.78H74.19C76.35 57.84 78.12 59.61 78.12 61.76C78.12 63.92 76.35 65.68 74.19 65.68H32.48C30.32 65.68 28.56 67.45 28.56 69.6C28.56 71.75 30.33 73.52 32.48 73.52H55.06C57.22 73.52 58.98 75.29 58.98 77.44C58.98 79.59 57.22 81.36 55.06 81.36H27.16C25.01 81.36 23.24 83.13 23.24 85.28C23.24 87.43 25.01 89.2 27.16 89.2H61.94C64.1 89.2 65.87 90.97 65.87 93.12C65.87 95.27 64.1 97.04 61.94 97.04H39.46C37.3 97.04 35.54 98.81 35.54 100.96C35.54 103.12 37.3 104.88 39.46 104.88H47.03C49.19 104.88 50.95 106.65 50.95 108.8C50.95 110.95 49.18 112.72 47.03 112.72H27.16C25 112.72 23.24 114.49 23.24 116.64C23.24 118.8 25.01 120.56 27.16 120.56H143.83V85.3V56.31V56.39Z" fill="#254557"/>
<path fill-rule="evenodd" clip-rule="evenodd" d="M27.54 0H42.99V8.58H27.54C25.18 8.58 23.25 6.65 23.25 4.29C23.25 1.93 25.18 0 27.54 0Z" fill="#254557"/>
<path fill-rule="evenodd" clip-rule="evenodd" d="M19.98 16.43H43V25.01H19.98C17.62 25.01 15.69 23.08 15.69 20.72C15.69 18.36 17.62 16.43 19.98 16.43Z" fill="#254557"/>
<path fill-rule="evenodd" clip-rule="evenodd" d="M329.76 107.24C331.56 107.24 333.28 106.84 334.84 105.94C336.35 105.07 337.53 103.87 338.39 102.35C339.29 100.77 339.69 99.03 339.69 97.22C339.69 95.41 339.29 93.67 338.39 92.09C337.53 90.57 336.35 89.37 334.84 88.5C333.28 87.6 331.56 87.2 329.76 87.2C327.96 87.2 326.22 87.61 324.64 88.51C323.12 89.38 321.92 90.58 321.05 92.1C320.15 93.68 319.75 95.41 319.75 97.23C319.75 99.05 320.15 100.78 321.05 102.36C321.92 103.89 323.11 105.08 324.64 105.95C326.22 106.85 327.94 107.25 329.76 107.25M278.04 99.02V107.25H286.41C287.9 107.25 289.79 107.08 291.07 106.23C292.15 105.51 292.53 104.41 292.53 103.15C292.53 99.65 289.31 99.01 286.41 99.01H278.04V99.02ZM278.04 87.19V95.07H285.46C286.88 95.07 288.55 94.87 289.75 94.04C290.75 93.34 291.16 92.34 291.16 91.13C291.16 89.92 290.75 88.92 289.75 88.22C288.55 87.38 286.88 87.19 285.46 87.19H278.04ZM248.76 97.22C248.76 95.4 248.36 93.67 247.46 92.09C246.6 90.57 245.42 89.37 243.91 88.5C242.34 87.59 240.63 87.2 238.83 87.2C237.03 87.2 235.29 87.61 233.71 88.51C232.19 89.38 230.99 90.58 230.12 92.1C229.22 93.68 228.82 95.41 228.82 97.23C228.82 99.05 229.22 100.78 230.12 102.36C230.99 103.88 232.18 105.08 233.71 105.95C235.29 106.85 237.01 107.25 238.83 107.25C240.65 107.25 242.34 106.85 243.91 105.95C245.42 105.08 246.6 103.88 247.46 102.36C248.36 100.78 248.76 99.04 248.76 97.23V97.22ZM188.25 87.42V98.83H194.33C196.14 98.83 198.17 98.53 199.6 97.33C200.89 96.25 201.36 94.75 201.36 93.1C201.36 91.45 200.9 89.96 199.6 88.89C198.16 87.71 196.13 87.41 194.33 87.41H188.25V87.42ZM478.87 111.5C476.84 111.5 474.85 111.18 472.93 110.53C471.29 109.98 469.65 109.18 468.38 107.98L468.17 107.78L469.93 104L470.33 104.37C471.41 105.36 472.74 106.06 474.1 106.56C475.63 107.12 477.23 107.41 478.86 107.41C480.37 107.41 482.31 107.23 483.59 106.34C484.54 105.67 485.06 104.8 485.06 103.63C485.06 102.86 484.84 102.19 484.29 101.65C483.7 101.08 482.99 100.68 482.22 100.4C481.03 99.98 479.76 99.66 478.54 99.36C476.9 98.96 475.2 98.5 473.63 97.87C472.33 97.35 471.22 96.55 470.31 95.49C469.25 94.26 468.9 92.69 468.9 91.1C468.9 89.61 469.28 88.22 470.09 86.97C470.96 85.63 472.23 84.69 473.67 84.03C475.48 83.2 477.55 82.95 479.52 82.95C481.13 82.95 482.72 83.16 484.28 83.58C485.72 83.97 487.11 84.56 488.33 85.42L488.59 85.6L487.03 89.44L486.62 89.18C485.54 88.48 484.38 87.94 483.14 87.58C481.96 87.23 480.75 87.03 479.52 87.03C478.01 87.03 476.15 87.23 474.9 88.15C473.96 88.85 473.44 89.75 473.44 90.93C473.44 91.7 473.67 92.37 474.23 92.91C474.84 93.49 475.57 93.9 476.36 94.18C477.53 94.6 478.79 94.91 480 95.19C481.64 95.58 483.33 96.05 484.9 96.68C486.19 97.2 487.29 97.99 488.2 99.04C489.25 100.25 489.62 101.8 489.62 103.37C489.62 104.86 489.22 106.24 488.41 107.49C487.53 108.85 486.23 109.78 484.77 110.43C482.95 111.24 480.87 111.49 478.89 111.49L478.87 111.5ZM440.55 111.5C437.93 111.5 435.42 110.93 433.13 109.65C430.93 108.42 429.19 106.72 427.93 104.54C426.63 102.29 426.05 99.82 426.05 97.22C426.05 94.62 426.63 92.15 427.93 89.9C429.19 87.72 430.95 86.01 433.15 84.79C435.45 83.51 437.96 82.94 440.59 82.94C442.61 82.94 444.59 83.27 446.46 84.04C448.24 84.77 449.77 85.86 451.03 87.31L451.28 87.59L448.24 90.59L447.96 90.29C446.01 88.2 443.6 87.2 440.74 87.2C438.91 87.2 437.16 87.6 435.56 88.51C434.03 89.38 432.82 90.57 431.95 92.1C431.05 93.68 430.65 95.41 430.65 97.23C430.65 99.05 431.05 100.78 431.95 102.36C432.82 103.89 434.02 105.08 435.56 105.95C437.16 106.85 438.9 107.26 440.74 107.26C443.6 107.26 446 106.22 447.96 104.13L448.24 103.83L451.28 106.83L451.03 107.11C449.76 108.56 448.22 109.65 446.44 110.39C444.56 111.17 442.57 111.51 440.55 111.51V111.5ZM401.37 83.25H405.98V111.19H401.37V83.25ZM369.27 87.42H360.12V83.25H383V87.42H373.85V111.19H369.27V87.42ZM329.75 111.5C327.11 111.5 324.58 110.93 322.27 109.65C320.06 108.42 318.3 106.71 317.03 104.52C315.72 102.27 315.13 99.82 315.13 97.22C315.13 94.62 315.73 92.17 317.03 89.92C318.3 87.73 320.06 86.02 322.27 84.79C324.58 83.51 327.11 82.94 329.75 82.94C332.39 82.94 334.89 83.51 337.19 84.79C339.4 86.02 341.15 87.72 342.41 89.9C343.71 92.15 344.29 94.62 344.29 97.22C344.29 99.82 343.71 102.28 342.41 104.54C341.14 106.73 339.39 108.43 337.19 109.65C334.89 110.93 332.38 111.5 329.75 111.5ZM292.74 96.62C293.92 97.09 294.95 97.82 295.75 98.85C296.78 100.18 297.17 101.79 297.17 103.46C297.17 105.82 296.32 107.81 294.39 109.21C292.2 110.8 289.18 111.19 286.55 111.19H273.42V83.25H285.79C288.29 83.25 291.04 83.66 293.1 85.19C294.92 86.54 295.76 88.41 295.76 90.67C295.76 92.05 295.47 93.39 294.73 94.57C294.21 95.4 293.54 96.09 292.74 96.63V96.62ZM238.82 111.5C236.18 111.5 233.65 110.93 231.34 109.65C229.13 108.42 227.37 106.71 226.1 104.52C224.79 102.27 224.2 99.82 224.2 97.22C224.2 94.62 224.8 92.17 226.1 89.92C227.37 87.73 229.13 86.02 231.34 84.79C233.65 83.51 236.18 82.94 238.82 82.94C241.46 82.94 243.96 83.51 246.26 84.79C248.47 86.02 250.22 87.72 251.48 89.9C252.78 92.15 253.36 94.62 253.36 97.22C253.36 99.82 252.78 102.28 251.48 104.54C250.22 106.72 248.46 108.43 246.26 109.65C243.96 110.93 241.45 111.5 238.82 111.5ZM195.92 102.87C195.43 102.9 194.93 102.93 194.44 102.93H188.24V111.19H183.63V83.25H194.44C197.45 83.25 200.51 83.87 202.86 85.87C205.07 87.74 205.98 90.25 205.98 93.11C205.98 95.11 205.53 97.03 204.38 98.69C203.36 100.17 201.96 101.2 200.32 101.87L206.79 111.19H201.66L195.91 102.87H195.92Z" fill="#101720"/>
<path fill-rule="evenodd" clip-rule="evenodd" d="M425.99 41.49V57.71H442.58C445.53 57.71 449.29 57.37 451.82 55.69C453.93 54.29 454.68 52.14 454.68 49.64C454.68 42.66 448.19 41.49 442.58 41.49H425.99ZM425.99 17.87V33.39H440.68C443.49 33.39 446.81 33 449.18 31.34C451.15 29.97 451.95 28.01 451.95 25.63C451.95 23.25 451.15 21.29 449.18 19.92C446.81 18.26 443.48 17.87 440.68 17.87H425.99ZM371.6 57.7C375.17 57.7 378.58 56.91 381.69 55.11C384.67 53.38 387.02 51 388.73 47.97C390.51 44.83 391.31 41.4 391.31 37.78C391.31 34.16 390.51 30.73 388.73 27.59C387.01 24.56 384.67 22.18 381.69 20.46C378.58 18.66 375.17 17.87 371.6 17.87C368.03 17.87 364.58 18.67 361.43 20.46C358.42 22.18 356.04 24.55 354.32 27.59C352.54 30.73 351.74 34.16 351.74 37.78C351.74 41.4 352.54 44.83 354.32 47.97C356.05 51.01 358.42 53.38 361.43 55.1C364.57 56.89 368 57.69 371.6 57.69V57.7ZM256.62 44.23L246.51 20.85L236.41 44.23H256.62ZM480.2 9.77001H489.6V65.81H480.2V9.77001ZM455.46 36.56C457.75 37.51 459.74 38.94 461.31 40.97C463.38 43.65 464.16 46.88 464.16 50.25C464.16 55.04 462.43 59.03 458.58 61.84C454.19 65.04 448.14 65.81 442.89 65.81H416.6V9.77001H441.37C446.36 9.77001 451.88 10.58 456 13.66C459.63 16.37 461.35 20.13 461.35 24.7C461.35 27.49 460.75 30.18 459.27 32.55C458.26 34.17 456.98 35.51 455.46 36.56ZM371.6 66.42C366.33 66.42 361.28 65.29 356.65 62.71C352.24 60.25 348.72 56.83 346.16 52.42C343.55 47.93 342.35 43 342.35 37.78C342.35 32.56 343.55 27.64 346.16 23.14C348.72 18.73 352.24 15.31 356.65 12.85C361.28 10.27 366.34 9.14001 371.6 9.14001C376.86 9.14001 381.87 10.28 386.48 12.85C390.88 15.3 394.39 18.7 396.93 23.1C399.53 27.6 400.7 32.56 400.7 37.77C400.7 42.98 399.53 47.94 396.93 52.44C394.39 56.84 390.87 60.24 386.48 62.69C381.87 65.26 376.85 66.4 371.6 66.4V66.42ZM311.49 66.42C306.26 66.42 301.24 65.28 296.65 62.71C292.27 60.26 288.77 56.85 286.24 52.46C283.64 47.96 282.47 43 282.47 37.79C282.47 32.58 283.64 27.62 286.24 23.12C288.78 18.72 292.3 15.32 296.69 12.87C301.3 10.3 306.32 9.16001 311.57 9.16001C315.6 9.16001 319.57 9.81001 323.31 11.36C326.86 12.82 329.92 15 332.46 17.91L333.03 18.56L326.82 24.69L326.2 24.02C322.3 19.85 317.51 17.88 311.87 17.88C308.24 17.88 304.77 18.67 301.59 20.48C298.56 22.19 296.17 24.56 294.44 27.61C292.66 30.75 291.86 34.18 291.86 37.8C291.86 41.42 292.66 44.85 294.44 47.99C296.17 51.04 298.56 53.41 301.59 55.12C304.77 56.92 308.24 57.72 311.87 57.72C317.53 57.72 322.29 55.67 326.2 51.5L326.82 50.83L333.03 56.96L332.46 57.61C329.91 60.53 326.82 62.72 323.27 64.2C319.52 65.76 315.53 66.44 311.49 66.44V66.42ZM260.07 52.25H232.96L227.11 65.8H217.3L242.21 9.76001H250.89L275.88 65.8H265.92L260.07 52.25ZM197.9 18.33H184.2V12.93C184.46 10.78 185.52 9.76001 187.74 9.76001H207.22V47.46C207.22 52.47 206.26 57.84 202.75 61.6C199.33 65.28 194.49 66.42 189.67 66.42C187.6 66.42 185.58 66.14 183.64 65.56V56.23C185.38 57.32 187.37 57.93 189.67 57.93C191.97 57.93 194.23 57.34 195.79 55.47C197.49 53.43 197.9 50.44 197.9 47.85V18.33Z" fill="#101720"/>
</g>
<defs>
<clipPath id="clip0_4_18">
<rect width="489.6" height="120.65" fill="white"/>
</clipPath>
</defs>
</svg>
