<svg width="205" height="50" viewBox="0 0 205 50" fill="none" xmlns="http://www.w3.org/2000/svg">
<path d="M18.8679 2.64151C18.8679 4.43397 17.8302 6.13208 8.3019 20C2.8302 27.9245 1.79247 32.8302 4.43398 38.7736C5.47171 41.0377 6.98115 43.4906 7.8302 44.1509C9.15096 45.283 9.43398 45.0943 10 42.8302C10.3774 41.4151 13.3019 36.4151 16.5094 31.6981C19.717 26.9811 23.0189 21.7925 23.9623 20.0943C26.2264 15.6604 25.9434 8.49057 23.3962 4.71699C20.8491 0.943401 18.8679 0.0943441 18.8679 2.64151Z" fill="black"/>
<path d="M84.9056 29.2456V41.5098H87.7358C90.283 41.5098 90.566 41.2267 90.566 38.7739C90.566 34.623 91.9811 34.4343 94.2453 38.2079C95.7547 40.8494 96.6981 41.5098 99.0566 41.5098H102.075L99.9056 37.9249C98.7736 36.0381 97.4528 34.0569 96.9811 33.4909C95.6604 32.0758 96.1321 30.472 98.5849 27.5475C99.9056 25.9437 100.943 24.5286 100.943 24.34C100.943 24.1513 99.8113 23.8683 98.3962 23.7739C96.6038 23.6796 95.1887 24.4343 93.3019 26.6041L90.6604 29.7173L90.566 23.3022V16.9815H87.7358H84.9056V29.2456Z" fill="black"/>
<path d="M48.1132 29.7173V41.5098H56.1321C63.4906 41.5098 64.151 41.3211 64.151 39.623C64.151 38.1135 63.3962 37.8305 58.7736 37.5475C53.3962 37.2645 53.3019 37.2645 53.3019 34.4343C53.3019 31.6984 53.4906 31.6041 57.8302 31.3211C61.5094 31.0381 62.2642 30.755 62.2642 29.1513C62.2642 27.6418 61.6038 27.3588 57.4528 27.3588C52.8302 27.3588 52.7359 27.2645 53.0189 24.7173C53.3019 22.2645 53.5849 22.1701 58.7736 21.8871C63.3962 21.6041 64.151 21.3211 64.151 19.8117C64.151 18.1135 63.4906 17.9249 56.1321 17.9249H48.1132V29.7173Z" fill="black"/>
<path d="M178.491 20.472C177.925 21.9815 176.038 27.2645 174.151 32.2645L170.755 41.5098H173.585C175.755 41.5098 176.698 40.9437 177.359 39.1513C178.113 37.1701 178.868 36.7928 182.076 36.7928C185.283 36.7928 186.038 37.1701 186.792 39.1513C187.453 40.9437 188.396 41.5098 190.472 41.5098H193.302L191.132 35.5664C189.906 32.3588 187.925 27.0758 186.792 23.7739C184.906 18.4909 184.434 17.9249 182.076 17.9249C180.094 17.9249 179.245 18.5852 178.491 20.472ZM183.774 29.2456L184.717 33.0192H181.887C179.717 33.0192 179.151 32.6418 179.623 31.5098C179.906 30.6607 180.472 28.9626 180.755 27.7362C181.604 24.4343 182.642 25.0003 183.774 29.2456Z" fill="black"/>
<path d="M196.226 29.7173V41.5098H198.585H200.943V29.7173V17.9249H198.585H196.226V29.7173Z" fill="black"/>
<path d="M30.6604 21.6042C30.3774 22.7362 26.8868 28.3023 23.0189 34.057C13.9623 47.6419 13.8679 50.2834 22.4528 48.1136C30.3774 46.2268 34.9057 40.4721 34.9057 32.4532C34.9057 25.0004 31.9811 17.5475 30.6604 21.6042Z" fill="black"/>
<path d="M153.491 21.6984C153.774 22.8305 153.396 23.7739 152.453 24.1513C150.566 24.906 150.472 26.9815 152.358 27.7362C153.396 28.1135 153.774 29.7173 153.774 33.7739C153.774 39.906 154.811 41.5098 158.679 41.5098C160.66 41.5098 161.321 41.0381 161.321 39.623C161.321 38.5852 160.66 37.7362 159.906 37.7362C158.774 37.7362 158.491 36.5098 158.491 32.5475C158.491 28.5852 158.774 27.3588 159.906 27.3588C160.66 27.3588 161.321 26.5098 161.321 25.472C161.321 24.4343 160.755 23.6796 160.189 23.8683C159.528 23.9626 158.868 23.1135 158.679 21.8871C158.396 20.2833 157.736 19.8116 155.66 19.8116C153.491 19.8116 153.113 20.0947 153.491 21.6984Z" fill="black"/>
<path d="M66.6981 24.2456C66.3207 24.5286 66.0377 28.5852 66.0377 33.2079V41.5098H68.8679H71.6038L71.8868 34.623C72.1698 28.5852 72.3585 27.8305 74.0566 27.8305C75.7547 27.8305 75.9434 28.5852 76.2264 34.623L76.5094 41.5098H79.2453H82.0755V34.4343C82.0755 28.5852 81.6981 26.9815 80.1887 25.472C78.0189 23.3022 76.2264 23.1135 73.3962 24.623C72.3585 25.189 71.2264 25.2834 70.849 24.906C70.0943 23.7739 67.4528 23.3966 66.6981 24.2456Z" fill="black"/>
<path d="M103.774 32.7362C103.774 41.5098 103.774 41.5098 106.132 41.5098C108.396 41.5098 108.491 41.2267 108.491 36.0381C108.491 30.3777 109.528 28.3022 112.453 28.3022C113.679 28.3022 114.151 27.5475 114.151 25.9437C114.151 23.3966 113.208 23.0192 110.283 24.5286C109.057 25.189 108.491 25.189 108.491 24.5286C108.491 24.0569 107.453 23.6796 106.132 23.7739C103.774 23.9626 103.774 24.0569 103.774 32.7362Z" fill="black"/>
<path d="M115.094 24.3398C115.094 24.7171 116.415 28.8681 117.925 33.4907C120.849 42.17 120.943 44.3398 118.396 44.3398C116.792 44.3398 116.415 47.6417 117.925 48.5851C118.396 48.8681 120 48.5851 121.321 47.9247C123.302 46.9813 124.528 44.7171 127.453 36.4152C129.528 30.7549 131.132 25.5662 131.132 25.0001C131.132 24.3398 130 23.9624 128.585 24.0568C126.509 24.1511 125.943 24.8115 124.811 28.6794C124.057 31.1322 123.302 33.019 123.019 32.8303C122.83 32.5473 122.075 30.4718 121.415 28.302C120.472 24.9058 119.811 24.1511 117.642 23.8681C116.226 23.6794 115.094 23.8681 115.094 24.3398Z" fill="black"/>
<path d="M133.962 36.0378V48.1133H136.321C138.396 48.1133 138.679 47.7359 138.679 44.434V40.6605L141.981 41.2265C146.226 41.8869 148.679 39.8114 149.528 34.9057C150.755 27.6416 145.377 21.3208 140.472 24.3397C139.434 25.0001 138.585 25.0944 138.208 24.5284C137.925 24.0567 136.887 23.7737 135.849 23.868C134.057 23.9623 133.962 24.7171 133.962 36.0378ZM143.302 28.6793C143.962 29.434 144.34 31.6982 144.151 33.6793C143.868 36.7925 143.585 37.2642 141.509 37.2642C139.434 37.2642 139.151 36.7925 138.868 33.1133C138.679 30.4718 138.962 28.6793 139.811 28.2076C141.509 27.0755 142.075 27.1699 143.302 28.6793Z" fill="black"/>
</svg>
